<svg width="77" height="76" viewBox="0 0 77 76" fill="none" xmlns="http://www.w3.org/2000/svg">
<path d="M38.5 38C38.5 40.5196 39.5009 42.9359 41.2825 44.7175C43.0641 46.4991 45.4804 47.5 48 47.5C50.5196 47.5 52.9359 46.4991 54.7175 44.7175C56.4991 42.9359 57.5 40.5196 57.5 38C57.5 35.4804 56.4991 33.0641 54.7175 31.2825C52.9359 29.5009 50.5196 28.5 48 28.5C45.4804 28.5 43.0641 29.5009 41.2825 31.2825C39.5009 33.0641 38.5 35.4804 38.5 38Z" stroke="#29F2AA" stroke-width="4" stroke-linecap="round" stroke-linejoin="round"/>
<path d="M19.5 19C19.5 16.4804 20.5009 14.0641 22.2825 12.2825C24.0641 10.5009 26.4804 9.5 29 9.5H48C50.5196 9.5 52.9359 10.5009 54.7175 12.2825C56.4991 14.0641 57.5 16.4804 57.5 19C57.5 21.5196 56.4991 23.9359 54.7175 25.7175C52.9359 27.4991 50.5196 28.5 48 28.5H29C26.4804 28.5 24.0641 27.4991 22.2825 25.7175C20.5009 23.9359 19.5 21.5196 19.5 19Z" stroke="#29F2AA" stroke-width="4" stroke-linecap="round" stroke-linejoin="round"/>
<path d="M29 28.5C26.4804 28.5 24.0641 29.5009 22.2825 31.2825C20.5009 33.0641 19.5 35.4804 19.5 38C19.5 40.5196 20.5009 42.9359 22.2825 44.7175C24.0641 46.4991 26.4804 47.5 29 47.5M29 47.5H38.5M29 47.5C27.1211 47.5 25.2844 48.0572 23.7221 49.101C22.1598 50.1449 20.9422 51.6286 20.2231 53.3645C19.5041 55.1004 19.316 57.0105 19.6825 58.8534C20.0491 60.6962 20.9539 62.3889 22.2825 63.7175C23.6111 65.0461 25.3038 65.9509 27.1466 66.3175C28.9895 66.684 30.8996 66.4959 32.6355 65.7769C34.3714 65.0578 35.8551 63.8402 36.899 62.2779C37.9428 60.7156 38.5 58.8789 38.5 57V9.5" stroke="#29F2AA" stroke-width="4" stroke-linecap="round" stroke-linejoin="round"/>
</svg>
