<svg width="77" height="76" viewBox="0 0 77 76" fill="none" xmlns="http://www.w3.org/2000/svg">
<path d="M10 15.8332C10 14.9933 10.3336 14.1879 10.9275 13.594C11.5214 13.0001 12.3268 12.6665 13.1667 12.6665H63.8333C64.6732 12.6665 65.4786 13.0001 66.0725 13.594C66.6664 14.1879 67 14.9933 67 15.8332V47.4998C67 48.3397 66.6664 49.1451 66.0725 49.739C65.4786 50.3329 64.6732 50.6665 63.8333 50.6665H13.1667C12.3268 50.6665 11.5214 50.3329 10.9275 49.739C10.3336 49.1451 10 48.3397 10 47.4998V15.8332Z" stroke="#29F2AA" stroke-width="4" stroke-linecap="round" stroke-linejoin="round"/>
<path d="M22.6667 63.3335H54.3334" stroke="#29F2AA" stroke-width="4" stroke-linecap="round" stroke-linejoin="round"/>
<path d="M29 50.6665V63.3332" stroke="#29F2AA" stroke-width="4" stroke-linecap="round" stroke-linejoin="round"/>
<path d="M48 50.6665V63.3332" stroke="#29F2AA" stroke-width="4" stroke-linecap="round" stroke-linejoin="round"/>
<path d="M29 38.0002V25.3335" stroke="#29F2AA" stroke-width="4" stroke-linecap="round" stroke-linejoin="round"/>
<path d="M38.5 38.0002V34.8335" stroke="#29F2AA" stroke-width="4" stroke-linecap="round" stroke-linejoin="round"/>
<path d="M48 37.9998V31.6665" stroke="#29F2AA" stroke-width="4" stroke-linecap="round" stroke-linejoin="round"/>
<path d="M38.5 38.0002V34.8335" stroke="#29F2AA" stroke-width="4" stroke-linecap="round" stroke-linejoin="round"/>
</svg>
