<svg width="77" height="76" viewBox="0 0 77 76" fill="none" xmlns="http://www.w3.org/2000/svg">
<path d="M38.5 57.0125H21.5805C13.4358 56.9998 6.83331 50.6443 6.83331 42.8036C6.83331 34.9661 13.4358 28.6106 21.5805 28.6106C22.825 23.031 27.2615 18.4773 33.218 16.6628C39.1713 14.8515 45.7453 16.0516 50.4573 19.8295C55.1693 23.5978 57.3036 29.3516 56.0623 34.9313H59.1973C62.2246 34.9313 64.967 36.1663 66.9525 38.1613" stroke="#29F2AA" stroke-width="4" stroke-linecap="round" stroke-linejoin="round"/>
<path d="M54.3365 60.1668C54.3365 61.8465 55.0037 63.4574 56.1915 64.6452C57.3792 65.8329 58.9901 66.5002 60.6698 66.5002C62.3495 66.5002 63.9604 65.8329 65.1482 64.6452C66.3359 63.4574 67.0032 61.8465 67.0032 60.1668C67.0032 58.4871 66.3359 56.8762 65.1482 55.6885C63.9604 54.5008 62.3495 53.8335 60.6698 53.8335C58.9901 53.8335 57.3792 54.5008 56.1915 55.6885C55.0037 56.8762 54.3365 58.4871 54.3365 60.1668Z" stroke="#29F2AA" stroke-width="4" stroke-linecap="round" stroke-linejoin="round"/>
<path d="M60.6698 49.0835V53.8335" stroke="#29F2AA" stroke-width="4" stroke-linecap="round" stroke-linejoin="round"/>
<path d="M60.6698 66.5V71.25" stroke="#29F2AA" stroke-width="4" stroke-linecap="round" stroke-linejoin="round"/>
<path d="M70.268 54.625L66.1545 57" stroke="#29F2AA" stroke-width="4" stroke-linecap="round" stroke-linejoin="round"/>
<path d="M55.1883 63.3335L51.0717 65.7085" stroke="#29F2AA" stroke-width="4" stroke-linecap="round" stroke-linejoin="round"/>
<path d="M51.0717 54.625L55.1883 57" stroke="#29F2AA" stroke-width="4" stroke-linecap="round" stroke-linejoin="round"/>
<path d="M66.1545 63.3335L70.2712 65.7085" stroke="#29F2AA" stroke-width="4" stroke-linecap="round" stroke-linejoin="round"/>
</svg>
