<svg width="77" height="76" viewBox="0 0 77 76" fill="none" xmlns="http://www.w3.org/2000/svg">
<path d="M25.8333 22.1667C25.8333 25.5261 27.1678 28.7479 29.5433 31.1234C31.9188 33.4988 35.1406 34.8333 38.5 34.8333C41.8594 34.8333 45.0812 33.4988 47.4567 31.1234C49.8321 28.7479 51.1666 25.5261 51.1666 22.1667C51.1666 18.8073 49.8321 15.5854 47.4567 13.21C45.0812 10.8345 41.8594 9.5 38.5 9.5C35.1406 9.5 31.9188 10.8345 29.5433 13.21C27.1678 15.5854 25.8333 18.8073 25.8333 22.1667Z" stroke="#29F2AA" stroke-width="4" stroke-linecap="round" stroke-linejoin="round"/>
<path d="M19.5 66.5V60.1667C19.5 56.8073 20.8345 53.5854 23.21 51.21C25.5854 48.8345 28.8073 47.5 32.1667 47.5H44.8333C48.1927 47.5 51.4146 48.8345 53.79 51.21C56.1655 53.5854 57.5 56.8073 57.5 60.1667V66.5" stroke="#29F2AA" stroke-width="4" stroke-linecap="round" stroke-linejoin="round"/>
</svg>
