<svg width="82" height="17" viewBox="0 0 82 17" fill="none" xmlns="http://www.w3.org/2000/svg">
<g clip-path="url(#clip0_207_8274)">
<mask id="mask0_207_8274" style="mask-type:luminance" maskUnits="userSpaceOnUse" x="0" y="0" width="82" height="16">
<path d="M81.1667 0.5H0.5V15.8411H81.1667V0.5Z" fill="white"/>
</mask>
<g mask="url(#mask0_207_8274)">
<path fill-rule="evenodd" clip-rule="evenodd" d="M64.7235 2.5495C64.7235 1.41715 65.6222 0.5 66.7306 0.5C67.8393 0.5 68.738 1.41715 68.738 2.5495C68.738 3.68185 67.8393 4.59899 66.7306 4.59899C65.6222 4.59899 64.7235 3.67995 64.7235 2.5495ZM4.22117 0.750115H0.5V15.6659H8.0224L7.08211 12.0109H4.22117V0.750115ZM19.7463 9.55973C19.7463 13.368 17.0303 15.8411 13.5016 15.8411C9.97287 15.8411 7.34247 13.3898 7.34247 9.55973C7.34247 5.75145 10.0157 3.27839 13.5445 3.27839C17.0732 3.27839 19.7463 5.75145 19.7463 9.55973ZM16.1749 9.58153C16.1749 8.0934 15.0201 6.82383 13.5445 6.82383C12.0474 6.82383 10.9139 8.04953 10.9139 9.55973C10.9139 11.0479 12.0259 12.3393 13.5016 12.3393C14.9772 12.3393 16.1749 11.0917 16.1749 9.58153ZM32.1226 11.1355H28.4014C27.9523 11.814 27.2679 12.1413 26.3912 12.1413C24.9797 12.1413 23.8673 11.0469 23.8673 9.5806C23.8673 8.17993 24.8511 6.97603 26.4121 6.97603C27.3317 6.99804 28.0161 7.39207 28.4652 8.15807H31.9725C31.395 5.18139 29.2351 3.27726 26.2415 3.27726C22.6915 3.27726 20.2321 5.72869 20.2321 9.5586C20.2321 13.3885 22.7342 15.8399 26.3047 15.8399C29.3211 15.8411 31.5024 14.2216 32.1226 11.1355ZM45.2047 3.45336V15.6661H41.5469V13.9369C40.8411 15.0755 39.5367 15.8411 37.8464 15.8411C34.9165 15.8411 32.6069 13.346 32.6069 9.53793C32.6069 5.72982 34.9181 3.27821 37.8691 3.27821C39.5581 3.27821 40.8633 4.0443 41.5476 5.18234V3.45336H45.2047ZM41.4835 9.495C41.4835 8.00667 40.2431 6.75913 38.7888 6.75913C37.2919 6.75913 36.0301 7.9192 36.0301 9.4728C36.0301 10.9832 37.1636 12.2307 38.7888 12.2307C40.3285 12.2299 41.4835 11.0701 41.4835 9.495ZM51.9528 8.22547C50.413 7.87533 49.6858 7.67833 49.6858 7.04378C49.6858 6.5185 50.2631 6.16819 51.1186 6.16819C52.1243 6.16819 52.6367 6.64982 52.7439 7.43773H56.1421C55.8855 4.92065 54.1769 3.19167 51.2042 3.19167C48.0605 3.19167 46.2427 4.87701 46.2427 7.10944C46.2427 9.7138 48.3599 10.3486 50.4555 10.8739L50.5242 10.8929C52.0156 11.2955 52.6796 11.4749 52.6796 12.0999C52.6796 12.6909 51.9739 13.0194 51.0971 13.0194C50.0705 13.0194 49.493 12.4721 49.4082 11.6623H45.7508C45.9216 14.0261 48.039 15.8426 51.2042 15.8426C54.2623 15.8426 56.2939 14.2675 56.2939 12.0999C56.2298 9.3846 54.1981 8.7718 51.9528 8.22453V8.22547ZM69.276 9.56067C69.276 13.3907 71.778 15.842 75.35 15.842C78.3653 15.842 80.546 14.2225 81.1667 11.1357H77.4453C76.996 11.8142 76.312 12.1415 75.4353 12.1415C74.024 12.1415 72.9113 11.0471 72.9113 9.5808C72.9113 8.18013 73.8953 6.97622 75.4567 6.97622C76.376 6.99823 77.06 7.39227 77.5093 8.15827H81.0167C80.44 5.18158 78.2793 3.27745 75.286 3.27745C71.7353 3.27821 69.276 5.72963 69.276 9.55973V9.56067ZM61.6329 6.56233H64.0189V3.45336H61.6329V0.562244L57.9761 1.51488V3.45336H56.4148V6.56119H57.9761V11.4193C57.9761 14.4176 59.5799 15.6653 62.1677 15.6653H63.9775V12.4321H62.8053C62.0141 12.4321 61.6329 12.0654 61.6329 11.343V6.56233ZM64.9349 5.07683V15.6122H68.632V5.07569L64.9349 5.07683Z" fill="#4397F7"/>
</g>
</g>
<defs>
<clipPath id="clip0_207_8274">
<rect width="80.6667" height="16" fill="white" transform="translate(0.5 0.5)"/>
</clipPath>
</defs>
</svg>
