<svg width="24" height="24" viewBox="0 0 24 24" fill="none" xmlns="http://www.w3.org/2000/svg">
<path d="M0 0.000732422V24.0007H24V0.000732422H0ZM19.9373 5.68798L18.6517 6.92248C18.5385 7.00423 18.4838 7.14523 18.507 7.28173V16.3485C18.4838 16.4895 18.5385 16.626 18.6517 16.7115L19.9058 17.946V18.2152H13.5855V17.946L14.886 16.68C15.015 16.551 15.015 16.5157 15.015 16.3207V8.98873L11.394 18.1837H10.9058L6.69075 8.98873V15.153C6.6555 15.411 6.74175 15.6727 6.921 15.8602L8.616 17.9152V18.1845H3.81525V17.9152L5.51025 15.8602C5.69025 15.6727 5.772 15.411 5.72475 15.153V8.02798C5.748 7.82848 5.67 7.63348 5.5215 7.50073L4.01775 5.68798V5.41423H8.6895L12.303 13.3402L15.4785 5.41423H19.9357L19.9373 5.68798Z" fill="#656867"/>
</svg>
