<?xml version="1.0" standalone="no"?>
<!DOCTYPE svg PUBLIC "-//W3C//DTD SVG 20010904//EN"
 "http://www.w3.org/TR/2001/REC-SVG-20010904/DTD/svg10.dtd">
<svg version="1.0" xmlns="http://www.w3.org/2000/svg"
 width="323.000000pt" height="323.000000pt" viewBox="0 0 323.000000 323.000000"
 preserveAspectRatio="xMidYMid meet">
<metadata>
Created by potrace 1.14, written by Peter Selinger 2001-2017
</metadata>
<g transform="translate(0.000000,323.000000) scale(0.100000,-0.100000)"
fill="#000000" stroke="none">
<path d="M1542 2867 l-172 -71 4 -51 c3 -27 8 -97 11 -155 4 -58 8 -121 10
-140 1 -19 5 -82 9 -140 4 -58 9 -127 11 -155 18 -201 17 -222 -4 -271 -33
-74 -52 -159 -53 -240 -1 -41 -4 -71 -8 -67 -6 6 -173 229 -202 268 -4 6 -18
24 -31 40 -13 17 -75 98 -138 180 -62 83 -162 214 -222 293 -60 79 -114 141
-120 139 -100 -40 -249 -101 -272 -112 -16 -7 -40 -16 -52 -20 -13 -3 -23 -9
-23 -13 0 -6 404 -522 459 -588 10 -11 42 -52 72 -90 29 -38 195 -249 369
-469 l315 -400 -10 -50 c-33 -149 24 -249 214 -375 51 -34 137 -68 195 -78 23
-3 165 -6 316 -7 l275 0 46 27 c35 21 52 40 72 80 69 144 89 280 62 412 -51
243 -240 378 -531 378 l-74 0 0 239 c0 181 -3 248 -14 272 -40 95 -137 132
-226 87 l-40 -20 -1 67 c0 38 -2 92 -4 121 -3 50 -2 54 23 64 29 11 117 13
170 4 61 -11 126 -49 183 -106 92 -91 127 -196 114 -345 -6 -73 -4 -82 15
-102 38 -41 94 -38 127 6 23 32 35 164 21 239 -4 26 -10 56 -12 67 -7 35 -45
123 -70 162 -115 182 -336 288 -526 253 -21 -4 -43 -4 -48 -1 -5 3 -13 67 -16
141 -4 74 -9 187 -12 250 -3 63 -7 142 -9 175 -2 33 -4 86 -4 118 -1 39 -5 57
-13 56 -7 -1 -91 -33 -186 -72z"/>
</g>
</svg>
